<?xml version="1.0" standalone="no"?>
<!DOCTYPE svg PUBLIC "-//W3C//DTD SVG 20010904//EN"
 "http://www.w3.org/TR/2001/REC-SVG-20010904/DTD/svg10.dtd">
<svg version="1.0" xmlns="http://www.w3.org/2000/svg"
 width="225.000000pt" height="224.000000pt" viewBox="0 0 225.000000 224.000000"
 preserveAspectRatio="xMidYMid meet">

<g transform="translate(0.000000,224.000000) scale(0.100000,-0.100000)"
fill="#000000" stroke="none">
<path d="M1018 2230 c-596 -66 -1030 -562 -1005 -1150 6 -137 16 -196 53 -311
105 -323 385 -602 707 -704 409 -130 840 -28 1140 269 166 164 269 362 313
601 21 118 14 335 -15 446 -86 329 -291 587 -583 735 -178 90 -418 135 -610
114z m-234 -595 c7 19 111 22 120 3 5 -10 7 -10 12 0 9 20 44 15 44 -7 0 -17
-8 -19 -72 -20 -39 0 -74 -3 -76 -6 -3 -3 16 -5 41 -5 l47 0 -5 -42 -5 -43 11
43 c8 31 15 42 30 42 20 0 23 -15 13 -68 -6 -28 -8 -30 -56 -30 -47 0 -49 1
-44 24 5 18 2 24 -9 24 -9 0 -18 -12 -21 -30 -5 -21 -12 -30 -25 -30 -22 0
-26 40 -9 84 11 31 6 34 -45 25 -22 -3 -32 -7 -22 -8 15 -1 18 -9 15 -53 -3
-45 -6 -53 -23 -53 -18 0 -20 6 -17 53 2 47 0 52 -18 52 -22 0 -27 24 -7 37
26 16 92 20 103 6 10 -11 13 -11 18 2z m294 6 c9 -5 11 -23 8 -57 -5 -42 -4
-45 5 -21 6 15 15 27 20 27 4 0 6 6 3 14 -13 34 77 41 103 8 9 -11 16 -12 25
-4 19 16 111 -7 103 -26 -3 -7 -5 -18 -5 -23 0 -5 -11 -4 -26 1 -14 6 -39 10
-55 10 -16 0 -29 5 -29 11 0 21 -18 -2 -23 -30 -13 -63 -79 -93 -114 -51 -15
18 -19 18 -34 4 -22 -20 -113 -10 -105 12 3 7 8 29 12 48 4 23 12 36 23 37 14
1 13 2 -1 6 -40 10 -7 43 42 43 19 0 41 -4 48 -9z m-460 -43 c2 -9 -5 -18 -15
-21 -14 -4 -13 -5 4 -6 16 -1 27 -12 38 -37 20 -49 19 -64 -5 -64 -12 0 -25
10 -32 25 -15 33 -25 32 -33 -6 -6 -27 -39 -53 -56 -43 -4 2 0 28 9 59 12 43
20 55 36 56 17 1 18 2 4 6 -21 5 -22 7 -5 33 14 24 50 23 55 -2z m-98 -54 c0
-31 -4 -37 -36 -50 -30 -13 -35 -19 -31 -40 5 -26 -18 -53 -33 -38 -4 5 -10
29 -12 53 l-3 44 50 18 c28 10 45 18 39 18 -6 1 -31 -6 -54 -14 -24 -8 -45
-13 -47 -11 -14 14 13 44 49 57 56 20 78 10 78 -37z m923 21 c26 -11 35 -19
30 -31 -4 -10 -13 -14 -27 -11 -12 3 -32 8 -46 12 -17 4 -15 2 8 -9 39 -18 42
-47 8 -81 -23 -23 -27 -23 -67 -12 -45 13 -54 23 -40 46 7 11 15 11 40 3 17
-6 31 -7 31 -2 0 5 -9 12 -20 15 -25 8 -27 45 -2 46 11 0 12 2 4 6 -10 4 -10
8 -1 19 15 18 38 18 82 -1z m-153 -20 c0 -29 -34 -85 -52 -85 -22 0 -23 19 -1
65 17 35 53 49 53 20z m-204 -100 c283 -48 723 -173 944 -268 57 -24 106 -50
108 -56 12 -37 -268 9 -738 123 -182 43 -263 56 -114 17 61 -16 163 -50 225
-76 63 -26 140 -56 172 -67 62 -22 73 -37 30 -39 -16 -1 -41 -3 -58 -4 -52 -4
-175 15 -315 50 -121 30 -250 50 -250 40 0 -2 19 -9 43 -15 67 -18 157 -62
157 -76 0 -8 -7 -14 -16 -14 -8 0 -55 -10 -102 -21 -165 -40 -278 -108 -492
-294 -89 -77 -114 -94 -128 -86 -38 20 -51 46 -53 106 -2 43 -9 70 -26 96 -18
28 -22 42 -15 60 27 73 26 76 -33 110 -30 17 -57 34 -59 38 -6 9 -56 294 -56
318 0 19 3 20 48 11 57 -11 131 -4 282 27 63 13 126 26 140 28 62 10 225 6
306 -8z m496 -402 c40 -36 24 -43 -97 -43 -64 0 -115 4 -115 9 0 5 12 19 26
30 35 28 157 30 186 4z m-261 -3 c15 -8 28 -39 17 -40 -11 -1 -178 -39 -195
-45 -14 -5 -23 -3 -23 3 0 24 48 62 95 76 61 18 81 19 106 6z m-231 -78 c0
-25 -7 -31 -52 -51 -29 -12 -71 -34 -92 -48 l-39 -25 6 37 c3 21 7 39 9 40 11
10 145 74 156 75 7 0 12 -12 12 -28z m495 19 c3 -5 2 -12 -3 -15 -5 -3 -7 -19
-4 -35 5 -35 -33 -80 -70 -82 -132 -6 -154 3 -143 60 3 20 6 46 6 59 1 21 4
22 104 22 57 0 106 -4 110 -9z m-245 -10 c0 -6 -4 -12 -10 -16 -6 -3 -5 -15 2
-31 10 -20 8 -29 -8 -52 -45 -61 -162 -88 -191 -45 -14 21 -13 23 22 37 20 9
47 13 59 10 14 -3 28 1 37 12 13 16 11 17 -23 11 -37 -6 -38 -5 -38 23 0 34 7
39 68 50 67 11 82 11 82 1z m-260 -68 c0 -5 -7 -30 -15 -57 -8 -27 -15 -62
-15 -77 0 -20 -9 -32 -35 -48 -43 -25 -50 -15 -42 51 9 71 25 104 60 121 37
18 47 20 47 10z m-190 -45 c0 -28 -8 -39 -42 -61 -36 -22 -38 -22 -38 10 0 18
10 35 28 50 35 29 52 29 52 1z m17 -125 c9 -76 9 -78 -16 -100 -36 -31 -51
-29 -51 7 0 17 -3 30 -7 30 -3 0 -24 -18 -45 -40 -22 -22 -43 -40 -47 -40 -5
0 -11 17 -14 37 -6 32 -2 42 20 65 15 16 34 27 42 26 8 -2 21 8 28 22 11 23
61 70 74 70 3 0 10 -35 16 -77z m-127 34 c0 -25 -7 -39 -30 -55 -36 -27 -36
-27 -44 0 -4 17 3 31 26 55 40 41 48 41 48 0z"/>
<path d="M1140 1578 c0 -7 -3 -23 -6 -35 -8 -28 12 -31 21 -3 3 11 13 27 21
35 14 13 13 15 -10 15 -14 0 -26 -6 -26 -12z"/>
<path d="M893 1443 c9 -2 23 -2 30 0 6 3 -1 5 -18 5 -16 0 -22 -2 -12 -5z"/>
<path d="M998 1433 c12 -2 30 -2 40 0 9 3 -1 5 -23 4 -22 0 -30 -2 -17 -4z"/>
<path d="M1060 1426 c0 -2 11 -6 25 -8 13 -3 22 -1 19 3 -5 9 -44 13 -44 5z"/>
<path d="M663 1412 c-10 -6 -9 -21 1 -67 8 -33 17 -77 20 -97 8 -46 22 -47 86
-12 46 25 18 23 -33 -3 -16 -8 -31 -13 -33 -11 -5 6 -34 146 -34 168 0 10 8
21 18 23 12 3 13 5 2 6 -8 0 -20 -3 -27 -7z"/>
<path d="M863 1413 c30 -8 19 -20 -24 -26 -44 -6 -79 -31 -79 -56 0 -10 10 -5
33 17 27 26 41 32 78 32 25 0 49 3 52 7 8 7 -48 34 -67 32 -6 -1 -3 -3 7 -6z"/>
<path d="M940 1410 c20 -13 43 -13 35 0 -3 6 -16 10 -28 10 -18 0 -19 -2 -7
-10z"/>
<path d="M1128 1413 c7 -3 16 -2 19 1 4 3 -2 6 -13 5 -11 0 -14 -3 -6 -6z"/>
<path d="M1178 1403 c7 -3 16 -2 19 1 4 3 -2 6 -13 5 -11 0 -14 -3 -6 -6z"/>
<path d="M560 1389 c-19 -5 -72 -10 -117 -12 -46 -1 -83 -5 -83 -9 0 -12 142
-9 200 3 28 6 54 8 57 5 8 -8 42 -170 37 -178 -2 -3 -32 -20 -67 -37 -34 -17
-83 -46 -108 -65 -63 -47 -72 -37 -98 100 -12 60 -21 119 -21 132 0 12 -4 22
-10 22 -14 0 -12 -31 10 -154 29 -161 44 -170 155 -99 41 26 94 60 118 74 l44
26 -21 102 c-23 111 -21 109 -96 90z"/>
<path d="M1045 1390 c-3 -5 -2 -10 4 -10 5 0 13 5 16 10 3 6 2 10 -4 10 -5 0
-13 -4 -16 -10z"/>
<path d="M1233 1393 c18 -5 19 -13 8 -53 -6 -23 -13 -25 -81 -31 l-75 -5 77
-2 77 -2 11 40 c7 26 17 40 28 41 20 1 -25 17 -48 17 -10 0 -9 -2 3 -5z"/>
<path d="M975 1380 c-3 -5 -1 -10 4 -10 6 0 11 5 11 10 0 6 -2 10 -4 10 -3 0
-8 -4 -11 -10z"/>
<path d="M1150 1375 c0 -8 9 -15 19 -15 26 0 35 16 15 24 -25 10 -34 7 -34 -9z"/>
<path d="M1318 1373 c7 -3 16 -2 19 1 4 3 -2 6 -13 5 -11 0 -14 -3 -6 -6z"/>
<path d="M1010 1358 c0 -12 -15 -15 -81 -15 -69 0 -84 -3 -102 -21 -11 -12
-18 -25 -14 -28 4 -4 16 2 27 14 19 20 31 22 116 22 85 0 95 -2 90 -16 -5 -14
-4 -15 9 -4 8 7 15 22 15 33 0 16 -3 18 -12 9 -9 -9 -16 -8 -30 5 -15 14 -18
14 -18 1z"/>
<path d="M1358 1363 c7 -3 16 -2 19 1 4 3 -2 6 -13 5 -11 0 -14 -3 -6 -6z"/>
<path d="M545 1350 c-16 -4 -60 -8 -97 -9 -80 -1 -77 9 -48 -141 11 -58 20
-106 20 -107 0 -11 30 2 69 31 25 18 69 45 97 59 l50 26 -15 75 c-16 81 -17
81 -76 66z m1 -35 c4 -8 12 -15 19 -15 18 0 28 -72 12 -85 -7 -5 -16 -17 -19
-25 -8 -21 -84 -25 -92 -4 -3 8 -13 14 -21 14 -10 0 -15 7 -14 18 1 9 -2 25
-6 36 -6 13 -3 21 8 28 10 5 17 15 17 23 0 8 13 15 33 18 17 2 38 5 45 5 7 1
15 -5 18 -13z"/>
<path d="M473 1264 c-8 -21 9 -48 32 -53 23 -4 45 24 38 49 -7 25 -61 28 -70
4z"/>
<path d="M1095 1341 c-7 -19 -7 -19 50 -11 28 4 40 8 28 9 -12 0 -24 5 -28 10
-8 14 -44 9 -50 -8z"/>
<path d="M1210 1345 c0 -8 2 -15 4 -15 2 0 6 7 10 15 3 8 1 15 -4 15 -6 0 -10
-7 -10 -15z"/>
<path d="M1266 1334 c-4 -15 -3 -30 1 -34 18 -17 770 -186 781 -176 17 18
-681 236 -754 236 -15 0 -24 -8 -28 -26z"/>
<path d="M1398 1353 c7 -3 16 -2 19 1 4 3 -2 6 -13 5 -11 0 -14 -3 -6 -6z"/>
<path d="M1665 1280 c27 -12 43 -12 25 0 -8 5 -22 9 -30 9 -10 0 -8 -3 5 -9z"/>
<path d="M928 1267 c-15 -10 -15 -13 3 -39 21 -28 43 -30 32 -3 -4 12 5 15 41
15 33 0 46 -4 46 -14 0 -8 7 -16 15 -20 12 -4 15 3 15 29 0 33 -16 46 -34 28
-12 -12 -78 -9 -83 4 -6 15 -13 16 -35 0z"/>
<path d="M1168 1263 c7 -3 16 -2 19 1 4 3 -2 6 -13 5 -11 0 -14 -3 -6 -6z"/>
<path d="M1204 1215 c-6 -25 -7 -45 -3 -45 4 0 11 15 14 33 4 17 12 38 17 45
7 8 6 12 -4 12 -8 0 -18 -18 -24 -45z"/>
<path d="M1755 1250 c11 -5 27 -9 35 -9 9 0 8 4 -5 9 -11 5 -27 9 -35 9 -9 0
-8 -4 5 -9z"/>
<path d="M884 1218 c-4 -7 -3 -8 4 -4 6 3 26 -9 43 -29 24 -26 35 -32 41 -23
7 10 11 9 21 -4 9 -11 18 -14 28 -7 10 6 10 9 2 9 -7 0 -13 4 -13 10 0 5 35
11 78 13 57 3 49 4 -32 3 -100 0 -110 2 -127 22 -19 24 -34 28 -45 10z"/>
<path d="M1236 1215 c-3 -9 -6 -22 -6 -29 0 -20 331 -102 383 -94 36 5 -242
116 -334 133 -29 5 -38 3 -43 -10z"/>
<path d="M1860 1220 c8 -5 20 -10 25 -10 6 0 3 5 -5 10 -8 5 -19 10 -25 10 -5
0 -3 -5 5 -10z"/>
<path d="M665 1166 c-55 -29 -126 -71 -157 -93 l-57 -40 24 -13 c29 -16 29
-14 11 -74 -14 -45 -13 -49 8 -81 17 -25 26 -31 35 -22 15 15 14 57 -1 57 -36
1 -40 16 -22 74 19 62 35 69 75 37 40 -31 107 -10 78 25 -19 24 -5 26 52 10
80 -24 81 -23 54 38 l-24 55 37 21 c34 20 35 23 17 33 -11 5 -22 14 -25 18 -3
4 -50 -16 -105 -45z"/>
<path d="M1130 1210 c0 -5 5 -10 10 -10 6 0 10 5 10 10 0 6 -4 10 -10 10 -5 0
-10 -4 -10 -10z"/>
<path d="M1175 1210 c3 -5 8 -10 11 -10 2 0 4 5 4 10 0 6 -5 10 -11 10 -5 0
-7 -4 -4 -10z"/>
<path d="M835 1200 c-13 -6 -15 -9 -5 -9 8 0 22 4 30 9 18 12 2 12 -25 0z"/>
<path d="M844 1172 c-32 -17 -49 -32 -46 -41 2 -7 -1 -17 -8 -21 -11 -7 -11
-14 0 -39 14 -35 20 -37 58 -17 58 29 67 29 87 -8 12 -22 24 -32 33 -29 8 3
17 1 21 -6 6 -8 18 -7 47 5 21 9 70 25 108 35 67 17 94 35 77 52 -5 5 -40 17
-80 27 -67 17 -74 17 -122 2 l-51 -16 -37 41 -36 42 -51 -27z"/>
<path d="M1950 1185 c14 -8 30 -14 35 -14 6 0 -1 6 -15 14 -14 8 -29 14 -35
14 -5 0 1 -6 15 -14z"/>
<path d="M2010 1160 c8 -5 20 -10 25 -10 6 0 3 5 -5 10 -8 5 -19 10 -25 10 -5
0 -3 -5 5 -10z"/>
<path d="M2060 1140 c8 -5 20 -10 25 -10 6 0 3 5 -5 10 -8 5 -19 10 -25 10 -5
0 -3 -5 5 -10z"/>
<path d="M815 1019 c-66 -32 -134 -84 -123 -94 3 -4 20 1 37 9 47 25 81 17 81
-19 0 -2 -37 -32 -82 -68 -46 -36 -99 -81 -117 -101 -19 -20 -38 -36 -43 -36
-11 0 -24 30 -32 72 -6 34 -5 38 19 44 13 3 22 10 19 15 -3 5 -17 1 -32 -10
-23 -17 -26 -24 -23 -72 4 -85 41 -102 101 -46 72 66 177 155 240 201 46 34
64 54 62 67 -2 11 1 19 7 19 6 0 8 7 4 16 -3 9 -13 14 -24 11 -11 -3 -22 1
-27 8 -6 11 -20 8 -67 -16z"/>
<path d="M692 1013 c2 -14 -9 -21 -51 -31 -50 -12 -54 -12 -68 7 -20 29 -39
26 -46 -6 -3 -16 -9 -36 -12 -45 -5 -14 -2 -18 13 -18 24 0 46 -25 37 -40 -4
-7 2 -14 13 -17 35 -9 35 -33 1 -47 -18 -8 -27 -16 -21 -20 6 -4 9 -13 5 -21
-3 -8 -2 -22 1 -31 5 -13 18 -4 64 40 32 31 81 73 110 94 28 20 52 40 52 45 0
13 -35 7 -67 -12 l-31 -20 -16 23 c-14 23 -13 25 30 55 50 36 54 46 22 55 -35
9 -39 7 -36 -11z"/>
<path d="M1445 919 c-4 -6 -5 -13 -1 -16 8 -8 56 6 56 17 0 13 -47 13 -55 -1z"/>
</g>
</svg>
